<svg width="200" height="200" viewBox="0 0 200 200" xmlns="http://www.w3.org/2000/svg">
  <defs>
    <!-- Gradient principal pour VOID -->
    <linearGradient id="voidGradient" x1="0%" y1="0%" x2="100%" y2="100%">
      <stop offset="0%" style="stop-color:#00ff88;stop-opacity:1" />
      <stop offset="50%" style="stop-color:#00ffff;stop-opacity:1" />
      <stop offset="100%" style="stop-color:#ffffff;stop-opacity:1" />
    </linearGradient>
    
    <!-- Gradient pour l'effet de profondeur -->
    <radialGradient id="depthGradient" cx="50%" cy="50%" r="50%">
      <stop offset="0%" style="stop-color:#000000;stop-opacity:0" />
      <stop offset="70%" style="stop-color:#000000;stop-opacity:0.3" />
      <stop offset="100%" style="stop-color:#000000;stop-opacity:0.8" />
    </radialGradient>
    
    <!-- Filtre de lueur -->
    <filter id="glow" x="-50%" y="-50%" width="200%" height="200%">
      <feGaussianBlur stdDeviation="4" result="coloredBlur"/>
      <feMerge> 
        <feMergeNode in="coloredBlur"/>
        <feMergeNode in="SourceGraphic"/>
      </feMerge>
    </filter>
    
    <!-- Filtre de flou léger -->
    <filter id="softGlow" x="-20%" y="-20%" width="140%" height="140%">
      <feGaussianBlur stdDeviation="2" result="softBlur"/>
      <feMerge> 
        <feMergeNode in="softBlur"/>
        <feMergeNode in="SourceGraphic"/>
      </feMerge>
    </filter>
  </defs>
  
  <!-- Arrière-plan avec effet de vide -->
  <rect width="200" height="200" fill="#000000" rx="20"/>
  
  <!-- Cercle de profondeur central -->
  <circle cx="100" cy="100" r="80" fill="url(#depthGradient)" opacity="0.6"/>
  
  <!-- Effet de perspective pour "VOID" - rectangles en arrière-plan -->
  <g transform="translate(100,100)" opacity="0.2">
    <!-- Rectangles qui s'éloignent vers le centre -->
    <rect x="-70" y="-5" width="140" height="2" fill="url(#voidGradient)" opacity="0.8"/>
    <rect x="-60" y="-2" width="120" height="1" fill="url(#voidGradient)" opacity="0.6"/>
    <rect x="-50" y="0" width="100" height="1" fill="url(#voidGradient)" opacity="0.4"/>
    <rect x="-40" y="2" width="80" height="1" fill="url(#voidGradient)" opacity="0.3"/>
  </g>
  
  <!-- Texte VOID principal -->
  <text x="100" y="115" 
        text-anchor="middle" 
        font-family="Arial, sans-serif" 
        font-size="36" 
        font-weight="900" 
        fill="url(#voidGradient)"
        filter="url(#glow)"
        letter-spacing="4px">VOID</text>
  
  <!-- Sous-texte STUDIO -->
  <text x="100" y="140" 
        text-anchor="middle" 
        font-family="Arial, sans-serif" 
        font-size="12" 
        font-weight="300" 
        fill="#ffffff"
        opacity="0.8"
        letter-spacing="3px">STUDIO</text>
  
  <!-- Éléments géométriques tech -->
  <g opacity="0.6">
    <!-- Coins technologiques -->
    <path d="M 20 20 L 40 20 L 40 22 L 22 22 L 22 40 L 20 40 Z" fill="url(#voidGradient)"/>
    <path d="M 180 20 L 160 20 L 160 22 L 178 22 L 178 40 L 180 40 Z" fill="url(#voidGradient)"/>
    <path d="M 20 180 L 40 180 L 40 178 L 22 178 L 22 160 L 20 160 Z" fill="url(#voidGradient)"/>
    <path d="M 180 180 L 160 180 L 160 178 L 178 178 L 178 160 L 180 160 Z" fill="url(#voidGradient)"/>
  </g>
  
  <!-- Points lumineux animés -->
  <g filter="url(#softGlow)">
    <circle cx="40" cy="60" r="1" fill="#00ff88" opacity="0.8">
      <animate attributeName="opacity" values="0.3;1;0.3" dur="2s" repeatCount="indefinite"/>
    </circle>
    <circle cx="160" cy="60" r="1" fill="#00ffff" opacity="0.8">
      <animate attributeName="opacity" values="1;0.3;1" dur="2.5s" repeatCount="indefinite"/>
    </circle>
    <circle cx="40" cy="140" r="1" fill="#ffffff" opacity="0.8">
      <animate attributeName="opacity" values="0.5;1;0.5" dur="1.8s" repeatCount="indefinite"/>
    </circle>
    <circle cx="160" cy="140" r="1" fill="#00ff88" opacity="0.8">
      <animate attributeName="opacity" values="1;0.5;1" dur="2.2s" repeatCount="indefinite"/>
    </circle>
  </g>
  
  <!-- Lignes de connexion subtiles -->
  <g opacity="0.3" stroke="url(#voidGradient)" stroke-width="0.5" fill="none">
    <line x1="100" y1="50" x2="100" y2="70"/>
    <line x1="100" y1="130" x2="100" y2="150"/>
    <line x1="50" y1="100" x2="70" y2="100"/>
    <line x1="130" y1="100" x2="150" y2="100"/>
  </g>
  
  <!-- Bordure extérieure subtile -->
  <rect x="1" y="1" width="198" height="198" fill="none" stroke="url(#voidGradient)" stroke-width="1" rx="20" opacity="0.4"/>
</svg>